<svg xmlns="http://www.w3.org/2000/svg" id="Layer_1" data-name="Layer 1" viewBox="0 0 325 260"><defs><style>.cls-1{fill:#fefefe}.cls-2{fill:#073766}.cls-3{fill:#083766}.cls-4{fill:#0a3967}.cls-5{fill:#083866}.cls-6{fill:#093867}.cls-7{fill:#0f3d6b}.cls-8{fill:#0e3d6b}.cls-9{fill:#e1e7ec}.cls-10{fill:#d5dde5}.cls-11{fill:#345b82}.cls-12{fill:#265079}.cls-13{fill:#214c76}.cls-14{fill:#27517a}.cls-15{fill:#a0b2c4}.cls-16{fill:#3a6085}.cls-17{fill:#15426e}.cls-18{fill:#577797}.cls-19{fill:#c8d2dc}.cls-20{fill:#c1cdd9}.cls-21{fill:#f7f8fa}.cls-22{fill:#6c88a4}.cls-23{fill:#f9fafb}.cls-24{fill:#507293}.cls-25{fill:#c4d0db}.cls-26{fill:#fdfefe}.cls-27{fill:#fafbfc}.cls-28{fill:#f6f8f9}.cls-29{fill:#f3f5f7}.cls-30{fill:#fcfcfd}.cls-31{fill:#e5eaee}.cls-32{fill:#e9edf1}.cls-33{fill:#e8ecf0}.cls-34{fill:#e7ecf0}.cls-35{fill:#3c6186}.cls-36{fill:#2f577e}.cls-37{fill:#d9e0e8}.cls-38{fill:#eaeef2}.cls-39{fill:#fdfdfd}.cls-40{fill:#d3dbe3}.cls-41{fill:#cad4de}.cls-42{fill:#cfd8e1}.cls-43{fill:#7590aa}.cls-44{fill:#8fa4ba}.cls-45{fill:#b4c3d0}.cls-46{fill:#bac7d4}.cls-47{fill:#bac8d5}.cls-48{fill:#99aec0}.cls-49{fill:#a8b9c9}.cls-50{fill:#9fb2c4}.cls-51{fill:#97acbf}.cls-52{fill:#cbd6df}.cls-53{fill:#c4cfda}.cls-54{fill:#f5f7f9}.cls-55{fill:#e4e9ee}.cls-56{fill:#eceff3}.cls-57{fill:#fcfdfd}.cls-58{fill:#8aa1b7}.cls-59{fill:#91a6bb}.cls-60{fill:#edf0f3}.cls-61{fill:#859db4}.cls-62{fill:#f2f4f7}.cls-63{fill:#e5e9ee}.cls-64{fill:#ecf0f3}.cls-65{fill:#194671}.cls-66{fill:#3c6287}.cls-67{fill:#174470}</style></defs><path d="M1123,670H798V410h325ZM941,499a.85.85,0,0,0-1-1l-2,1h-1a.78.78,0,0,0-.76-1c-.67-.08-1.31,0-1.24,1l-1,2h-1c-1.26-.6-.09-3.49-2.59-2.94-1.17,1.62.1,2.71.59,3.94.17,1.58-1.59.55-1.94,1.44.21.89-.91,2.27.94,2.56v1c-1.39.39-2.13-.55-2.87-1.37v-15.4c2.41.28,2.41,2.87,4.2,3.93s3.67,1.24,5.12,2.1c2.34,1.37,3.92.39,6.15-.37-.19,1.93,1.95.42,2.4,1.75a4.09,4.09,0,0,1-1,3.11c-.25.37,0,.94.5,1.25,1.2.23,1.67-.82,2.39-1.42.06-1.12.12-2.25.19-3.46,4.19-.71,5.94,3,9.11,5.25-2.08-5.72-5.51-8.32-10.34-8.37-2.49,0-5,0-7.46,0-2.63-.91-.75-3.42-1.73-4.9h-1.32c-.91,1.22.2,2.71-.87,3.92-2.87,0-2.4-3.52-4.4-4.55-.31-.16-.36-1.53.16-2.25,3.46-.7,6.45-2.44,10-3.72-2.15-1.12-2.19-3.29-3.64-4.34-2.11.8-4.12,1.94-6.56,1.83a27.69,27.69,0,0,1,10.75-18.18c3.8-2.86,7.82-5.79,13.14-6.06,0-.68,0-1.32,0-2s.17-1.33-.51-1.79a34.23,34.23,0,0,0-19.62,11.69,35.93,35.93,0,0,0-8.08,19L922,484.42c0,11.48.12,22.82,0,34.14-.08,5.36,1.4,10.45,2.13,15.66a12.14,12.14,0,0,0,2.27,5.51c2.74,3.56,5,7.47,8.39,10.56s6.56,6.87,10.56,9.52c2.87,1.9,5.71,3.86,8.64,5.85-.53,6.4,3.75,11,6.74,17.29,2.4-6.46,7.08-10.92,6.33-17.67,1.92.29,2.61-1.54,4-2.34,8.78-5.2,15.76-12.44,21.84-20.48a17.12,17.12,0,0,0,3.31-6.1c1.41-5.71,2.86-11.37,2.87-17.28,0-11.33,0-22.66,0-34a2.59,2.59,0,0,0-.25-.8l-4.12-1.88c1.06-1.74-.37-3.06-.55-4.58-.58-4.83-3.1-8.87-5.61-12.66-4.48-6.77-11.71-11.07-20-13.15a1.12,1.12,0,0,0-1.41.43v3.32c.87.64,2.07-.26,3,.88L968,461a16.14,16.14,0,0,0,1.36,7.87l4,4c4.08,2.38,7.9,1.07,11.68-.82v1l-1.25,2.33A2.32,2.32,0,0,1,985,478h-2v2c-.09,1.26-1.54,1.54-1.91,2.68l10.06,3.89a10.36,10.36,0,0,1-4.38,6.66c-1.57-1.31.05-3.17-1.27-4.21h-1.15c-1,1.42.62,3.81-2.35,4.94h-8.79c-4.16,1.81-7.64,3.32-8.23,8.56l3.44-3.44a6.83,6.83,0,0,1,4.12-2.07c.46-.05,1-.18,1.39.47l.16,3.14c.94.76,1.53,2.19,2.91.89.27-1.53-2.18-2.69-.62-4.39,1.5.38,1.25,2,2.12,2.88,2.14-.12,4.35.49,6.38-.87v5.73c-3.87,3-6.35-.74-9.83-1.72h-6.43c-2.51,1.57-3.49,3.72-4.3,6-.68,1.94-.13,3.91-.32,5.85v2c0,2.66.36,5.39-.1,8-.49,2.79,1.46,5.21,1,7.89H956.1c1.29-9,1.56-17.79.12-25.41L952,503a16.57,16.57,0,0,0-10,2,.85.85,0,0,1-1-1c-.16-1,1.87-1.45.53-3H940Zm9-24c-1.27-.49-1.94.86-3,1h-2.82c-.69,0-1.24.13-1.18,1-1,.13-2-.31-2.9.37V479l2.25,2.93c1.8.26,3.31-.33,4.62.47.3,1.79-.74,3.73,1.1,5.23-1.84.48-3.65.84-5.07,2.09l.22,1.35c4.08-1.16,7.65,1.76,11.83,1.85-.3-1-1.22-1.11-1-1.92.6-.11,1.27.26,1.79-.29-.06-2.95-.06-2.95-2.79-3.53V490c-2-.27-1.73-2.52-2.85-3.37V481.1h2.25c.89.38.49,1,.63,1.44,2.49,1.1,5.58,1,7.57,3.54,1.68-2.85,5-2.2,7.4-3.64,0-.48-.14-1,.37-1.32h2.5v4.78c-.88,3.25-3.16,4.69-5,6.76,2.27,1.14,4.35-.26,5.8-1.11,2.12-1.26,4.57.57,6.66-1.42-1.5-1.71-3.53-1.89-5.34-2.57,2-1.44.27-3.76,1.41-5.58h3.48l3-2.32V477.2c-5.36-.69-10.5-2.31-16.36-2.36,1.53-3.63-.55-6.61-.59-9.84s.72-6.49-1-9.48l2-2c0-1.43,0-3.07,0-4.71a.76.76,0,0,0-1-.79c0-1-1-1.19-1.37-1.93H958.4c-.7,1.1-2.16,1.51-2.4,2.93v4c0,1,.83,1.34,1.38,1.82.74.65.61,1.4.62,2.18-.93-.07-1,.56-1,1.24V467c-.89-.06-1,.51-1,1.2V475h-6Zm79.93,124.27c-2.14-1.68-4.26-2.95-6.52-3.17-3.74-.37-7.54-.1-11.31-.1v37.85h12.48c1.56-1.41,4.14-1.43,5.22-3.12v-10.6h-5.73v6.21c-1.72,2.64-3.95,1.3-6,1.72v-25.9h4.57l1.34,1.34c0,2.6.86,5.69-.21,7.79-1.42,2.76-.3,4.49.66,6.76,3.47-.23,7.07.46,10.47-1,5.9.54,11.64-1.76,17.56-1,.1,0,.24-.2.58-.52-1.4-.31-2.2-1.63-3.7-1.46-5.74.64-11.31-1.67-17-1a4,4,0,0,1-1-.13c-.35-.35-.94-.66-1-1.06C1029.57,607.71,1030.25,603.58,1029.93,599.27Zm-88.1,32.49v-33.1c-2.51-.35-4.11-2.7-6.87-2.67-3.61,0-7.23,0-10.86,0v37.85h13.51C938.69,632.8,940.23,632.42,941.83,631.76Zm45,2.14V596c-6.06.18-12-.21-17.65.22v37.71h5.89V616.16c3-.7,4.5,1.92,6.52,2-1.2,5.28-.29,10.46-.65,15.71ZM958,607.82h5.93V596.2H946.12v37.58h18v-11.5l1.72-.6v-5.31l-9.62-4.7v6.09l1.7.58c-2.08,3,0,6.54-1.24,9.53h-4.45V602.15H958Zm39,7.68,6,2.94c-1.2,2.51-1.39,7.13-.64,15.28H1008V615.08l-2.07-1.51,2-2V596.18H991.25v37.65H997Zm-100-8.84c1.91-1.64,2.16,1.16,3.53.34.7-.62,1.28-1.73,2.56-.45V633.8H909c0-6.34,0-12.48,0-18.62s.28-12.14-.24-18.6l-9,4.58c-2.42-2.59-5.71-3.29-8.61-5.2v15.4l-1.74,1.74c-5.91-1-11.78,1.53-17.84.91-1.43-.14-2.26,1.07-3.44,1.74,5.82-.67,11.32,1.66,17,1.26a4.89,4.89,0,0,1,2.43.13c3.12,1.7,6.28.55,9.07.72.69-1.1-.12-2.07.71-2.69a2,2,0,0,0,.53-2.64C896.1,610.58,897.5,608.41,897,606.66Zm15.86-10.57v9.71l-1.68.44v4.41l2,2v21.18H919c0-5.79,0-11.43,0-17.06a.81.81,0,0,1,.16-.43,2.26,2.26,0,0,1,.35-.34c.47-.06,1,.2,1.37-.42v-5.19l-2-2V596.09Zm-16,37.82V620.28h-5.66v13.63ZM939.69,493c0-1.44,1.44-2.09,1.34-3.47-.07-.86,0-1.61-1.64-1.49.37,1.4-1.57,1.84-1.39,3.53Zm2.4-7.7c.84,1.71,2.07,2.11,3.82,1.42C945.07,485,943.84,484.6,942.09,485.29Z" class="cls-1" transform="translate(-798 -410)"/><path d="M942,505a16.57,16.57,0,0,1,10-2l4.19,4.43c1.44,7.62,1.17,16.45-.12,25.41h8.81c.45-2.68-1.5-5.1-1-7.89.46-2.59.1-5.32.1-8a5.39,5.39,0,0,0,3-3c.74,0,1.45.11,2.12-.56s1.61-.85,1.88.56a.85.85,0,0,0-1,1c-.42,1.71-2.32,2.24-3.09,4,.76,4.52-1.28,9.56,1.57,14.08.88-.21,1.79.35,2.67-.72-1.41-3.39-1.69-7,.75-10.54,2.25,1.22,2.89,3.23,3.21,5.83,1.93,1.89,4.38,3.87,4,6.7,3.25,2,6.82,1.36,9.46,3.58.47-.46,1.2-.85,1.38-1.41,1.32-4.16,3.16-8.2,3-12.72,0-1.47-.31-3.12.23-4.39,1.49-3.48.51-6.87.56-10.11-2.68.54-4.45,2.05-6.33,3.57-1.43,1.16-3.64,2.36-5.31.06-3.37,1.54-6.28,1.65-6.94-.48-.75-2.46-3.26-2-4-3.64-.68-.91.52-2.53-1.58-2.88L967,509.55V514c-1.27-.49-1.94.86-3,1,.19-1.94-.36-3.91.32-5.85.81-2.29,1.79-4.44,4.3-6h6.43c3.48,1,6,4.72,9.83,1.72v-5.73c-2,1.36-4.24.75-6.38.87-.87-.85-.62-2.5-2.12-2.88-1.56,1.7.89,2.86.62,4.39-1.38,1.3-2-.13-2.91-.89l-.16-3.14c-.38-.65-.93-.52-1.39-.47a6.83,6.83,0,0,0-4.12,2.07L965,502.52c.59-5.24,4.07-6.75,8.23-8.56H982c3-1.13,1.38-3.52,2.35-4.94h1.15c1.32,1-.3,2.9,1.27,4.21a10.36,10.36,0,0,0,4.38-6.66l-10.06-3.89c.37-1.14,1.82-1.42,1.91-2.68l3.12-1.56L985,478a2.32,2.32,0,0,0-1.25-2.67L985,473l2.93-1.47c.16-.94-.09-1.3-.55-1.52-.52,0-1,0-1.33.44s-1.17.71-1,1.55c-3.78,1.89-7.6,3.2-11.68.82l-4-4A16.14,16.14,0,0,1,968,461l2.1-4.34c-.93-1.14-2.13-.24-3-.88v-3.32a1.12,1.12,0,0,1,1.41-.43c8.24,2.08,15.47,6.38,20,13.15,2.51,3.79,5,7.83,5.61,12.66.18,1.52,1.61,2.84.55,4.58l4.12,1.88a2.59,2.59,0,0,1,.25.8c0,11.33,0,22.66,0,34,0,5.91-1.46,11.57-2.87,17.28a17.12,17.12,0,0,1-3.31,6.1c-6.08,8-13.06,15.28-21.84,20.48-1.35.8-2,2.63-4,2.34.75,6.75-3.93,11.21-6.33,17.67-3-6.27-7.27-10.89-6.74-17.29-2.93-2-5.77-3.95-8.64-5.85-4-2.65-7.07-6.31-10.56-9.52s-5.65-7-8.39-10.56a12.14,12.14,0,0,1-2.27-5.51c-.73-5.21-2.21-10.3-2.13-15.66.17-11.32,0-22.66,0-34.14l3.79-1.73a35.93,35.93,0,0,1,8.08-19A34.23,34.23,0,0,1,953.49,452c.68.46.49,1.16.51,1.79s0,1.28,0,2c-5.32.27-9.34,3.2-13.14,6.06A27.69,27.69,0,0,0,930.11,480c2.44.11,4.45-1,6.56-1.83,1.45,1,1.49,3.22,3.64,4.34-3.6,1.28-6.59,3-10,3.72-.52.72-.47,2.09-.16,2.25,2,1,1.53,4.5,4.4,4.55,1.07-1.21,0-2.7.87-3.92h1.32c1,1.48-.9,4,1.73,4.9,2.49,0,5,0,7.46,0,4.83.05,8.26,2.65,10.34,8.37-3.17-2.26-4.92-6-9.11-5.25-.07,1.21-.13,2.34-.19,3.46-.72.6-1.19,1.65-2.39,1.42-.47-.31-.75-.88-.5-1.25a4.09,4.09,0,0,0,1-3.11c-.45-1.33-2.59.18-2.4-1.75-2.23.76-3.81,1.74-6.15.37-1.45-.86-3.4-1.07-5.12-2.1s-1.79-3.65-4.2-3.93v15.4c.74.82,1.48,1.76,2.87,1.37.09,1.5,1.24.85,2,1h3.79c-.59-.86-.64-2-1.79-2v-5l1-2h1v4.79c0,.68.1,1.28,1,1.21A3.43,3.43,0,0,0,942,505Zm6,28a.71.71,0,0,0-.89.6c0,.07.22.31.29.29a2.81,2.81,0,0,1,1.49-1.49c0-.07-.22-.31-.29-.29A.71.71,0,0,0,948,533Zm25,0a.71.71,0,0,0-.6-.89c-.07,0-.31.22-.29.29a2.81,2.81,0,0,1,1.49,1.49c.07,0,.31-.22.29-.29A.71.71,0,0,0,973,533Zm17-54c-.28.11-.76.17-.79.34-.14.6.3.7.79.66.28-.11.76-.17.79-.34C990.93,479.06,990.49,479,990,479Zm-45,28h-1l-2,1a.85.85,0,0,0-1,1,.85.85,0,0,0-1,1h-3a.85.85,0,0,0-1,1h-4c-1,.05-1.52-1.6-2.56-1s-1.34-1.6-2.24-.76c-1.05,5.12.9,9.87.79,14.74-.07,2.91.89,5.56,1.75,8.27.65,2.05.79,4.3,2.77,5.59,2.75-2.17,6.26-1.94,9.28-3.22a8.63,8.63,0,0,1,2.8-5.75,6,6,0,0,0,1.55-2.87c.54-1.56.76-3.93,3.65-4.12-.26,2,1,3.5,1.31,5.4s-2.14,3.45-.74,5.58h2.31c.57-1.81,1.47-3.4,1.4-5.47-.2-6.32-.07-12.64-.07-18.91L951.5,506H946A.85.85,0,0,0,945,507Zm43-31c.11.28.17.76.34.79.6.14.7-.3.66-.79-.12-.66.37-1.51.09-1.64l-2.51,1.11Zm-13,31c-.25-1.4-1-1.17-1.92-.61.51.71.94,1.49,1.92,1.61h1l1.38,2.88a2.73,2.73,0,0,0,3.53-1.48L976,507Zm-4,44v3c-1.87.59-.8,1.83-.76,2.88.66-.06.82-.4.76-.88l2-1c1.37-1,1.37-2,0-3v-2c1.5-.09.85-1.24,1-2-.48-1.41,1.18-2.18,1-3.55a34.84,34.84,0,0,1,0-3.81c-1.29-1.69-1.72-4-4-4.64-.28.11-.76.17-.79.34-.14.6.3.7.79.66-.17,1.77,1.51,3.16,1,5v8A.85.85,0,0,0,971,551Zm-21-15c-2.29.66-2.71,3-4,4.63.12,2.09-.32,4.31.91,6.47.56,1,0,2.39,1,3.56,1.18,1.38-1.47,2.41-.83,4,1.62,0,2.34,1.7,3.89,2.57,0-1.08.21-1.77,0-2-1.54-1.61-.88-3.86-1.77-5.75s-.06-4.56-.24-6.86c-.17-2,1.56-3.55,1-5.55.28-.11.76-.17.79-.34C950.93,536.06,950.49,536,950,536Zm4,14a17.6,17.6,0,0,0-1-7.08c-.37-1.19-1-1-2-.61-.19,4.92,2,9.38,2.9,14.27-.4.43-1.2.9-.88,1.91,2.08.74,3.51,2.78,6,3.42-.18-3.8.54-7.42-1.08-10.76a14.46,14.46,0,0,1-1-5.09c-.37-3.47,1-6.49,2.23-9.62a6.12,6.12,0,0,0-3.95-.26l.81.94-2.81,1.14c1,2.29,2.1,4,1.82,6.25a43.7,43.7,0,0,0,0,5.49Zm13,0h-1c.25-3.93-1-8.1,1.8-11.45L965.53,536c-1.24.24-2.45-.41-3.73.66a17,17,0,0,0-1.28,13.23A29.21,29.21,0,0,1,962,558.7c0,1.09-.52,2.32.44,3.29l5.48-3.66c.21-1.29-1.22-1.45-.84-2.42,1-3.56,2.06-7.14,2.82-10.77.2-.95.68-2.3-.87-3.38C967.07,544.22,966.87,547.06,967,550Zm26.84-44.15V490.14c-2.42.59-2.38,3.46-4.6,4.32-.89.35-1.15,2.35-1.69,3.58-.79-.08-1.46-.13-1.58,1.23,2.36,2.49.77,5.53-.11,8.63h4.58ZM984,465.72c-2.75-3.57-6.1-5.68-9.59-7.63l-2.26,2.26v6.3l3.33,3.33h6.09C982.43,468.68,984.55,468,984,465.72ZM933.3,541.5c3,1.1,4.71-.43,6.55-.94,3-.84,3-1,5.3-4.08C941,538.35,936.65,537.51,933.3,541.5Zm53.73.17c-.1-.64.16-1.16-.38-1.53s-.95-1-1.51-1.11c-2.94-.78-5.9-1.46-9.13-2.24,1,2.77,3,3.26,4.93,3.61S984.68,542.83,987,541.67Zm-29.62,26.41c-.27,2.94.83,5.37,3.5,7.67v-6.51C959.52,569.38,958.87,567.62,957.41,568.08Zm22.74-20.51,3.43-3.43-5.57-2A9.21,9.21,0,0,0,980.15,547.57Zm-39.36.68c.84-2.15,2.89-3.59,1.94-6.19-1.74,1.34-4.17.84-5.35,2.24Zm1.17.31c0,1.81,1.7,2.26,2.88,4v-5.38C944.24,548.55,942.61,547.47,942,548.56Zm34.19,4.18c1.1-2,2.94-2.33,2.87-4.26l-2.87-1.4ZM980,496.08c-.06,1.05-.17,1.73.78,1.92,1.24.08,1.64-.78,1.84-1.92Z" class="cls-2" transform="translate(-798 -410)"/><path d="M1029.93,599.27c.32,4.31-.36,8.44.41,12.53.08.4.67.71,1,1.07a4.49,4.49,0,0,0,1,.12c5.74-.66,11.31,1.65,17,1,1.5-.17,2.3,1.15,3.7,1.46-.34.32-.48.54-.58.52-5.92-.74-11.66,1.56-17.56,1-3.4,1.51-7,.82-10.47,1-1-2.27-2.08-4-.66-6.76,1.07-2.1.21-5.19.21-7.79l-1.34-1.34h-4.57v25.9c2-.42,4.26.92,6-1.72v-6.21h5.73v10.6c-1.08,1.69-3.66,1.71-5.22,3.12H1012.1V596c3.77,0,7.57-.27,11.31.1C1025.67,596.32,1027.79,597.59,1029.93,599.27Z" class="cls-3" transform="translate(-798 -410)"/><path d="M941.83,631.76c-1.6.66-3.14,1-4.22,2.09H924.1V596c3.63,0,7.25,0,10.86,0,2.76,0,4.36,2.32,6.87,2.67ZM931.15,602.1v25.84c1.73,0,3.33.34,4.7-.17V602.1Z" class="cls-4" transform="translate(-798 -410)"/><path d="M986.83,633.9h-5.89c.36-5.25-.55-10.43.65-15.71-2-.11-3.52-2.73-6.52-2v17.73h-5.89V596.18c5.69-.43,11.59,0,17.65-.22Zm-6-31.74h-5.7v6.42c1.57,1.6,3,3.29,5.7,3.43Z" class="cls-2" transform="translate(-798 -410)"/><path d="M958,607.82v-5.67h-5.75v25.72h4.45c1.19-3-.84-6.49,1.24-9.53l-1.7-.58v-6.09l9.62,4.7v5.31l-1.72.6v11.5h-18V596.2H963.9v11.62Z" class="cls-5" transform="translate(-798 -410)"/><path d="M997,615.5v18.33h-5.74V596.18h16.65V611.6l-2,2,2.07,1.51v18.64h-5.67c-.75-8.15-.56-12.77.64-15.28Zm.18-13.4v7.52l4.64,2.26V602.1Z" class="cls-5" transform="translate(-798 -410)"/><path d="M964,448a.76.76,0,0,1,1,.79c0,1.64,0,3.28,0,4.71l-2,2c1.71,3,.94,6.29,1,9.48s2.12,6.21.59,9.84c5.86.05,11,1.67,16.36,2.36v2.46l-3,2.32h-3.48c-1.14,1.82.6,4.14-1.41,5.58,1.81.68,3.84.86,5.34,2.57-2.09,2-4.54.16-6.66,1.42-1.45.85-3.53,2.25-5.8,1.11,1.82-2.07,4.1-3.51,5-6.76v-4.78h-2.5c-.51.3-.34.84-.37,1.32-2.36,1.44-5.72.79-7.4,3.64-2-2.55-5.08-2.44-7.57-3.54-.14-.48.26-1.06-.63-1.44h-2.25v5.53c1.12.85.83,3.1,2.85,3.37a.85.85,0,0,0,1,1c-.17.81.75,1,1,1.92-4.18-.09-7.75-3-11.83-1.85l-.22-1.35c1.42-1.25,3.23-1.61,5.07-2.09-1.84-1.5-.8-3.44-1.1-5.23-1.31-.8-2.82-.21-4.62-.47L940.1,479v-1.63c.94-.68,1.95-.24,2.9-.37.09,1.5,1.24.85,2,1,1-.38,2.53.93,3-1h3.8c.69,0,1.26-.11,1.2-1v-1h3v-3h1c.12.94-.29,1.95.37,2.91H959V465c.89.06,1-.51,1-1.2V460c-.38-1,.93-2.53-1-3h-1c0-.78.12-1.53-.62-2.18-.55-.48-1.42-.84-1.38-1.82h1c1.93-.47.62-2,1-3,1.06-.14,1.73-1.49,3-1S962.94,448.14,964,448Zm-1.67,32.17c-1.31,0-2.28-.68-3.17.17l1.21,1.79ZM942,478.5c-.32-.47-.66-.47-1,0C941.33,479,941.67,479,942,478.5Z" class="cls-6" transform="translate(-798 -410)"/><path d="M897,606.66c.53,1.75-.87,3.92.91,5.87a2,2,0,0,1-.53,2.64c-.83.62,0,1.59-.71,2.69-2.79-.17-5.95,1-9.07-.72a4.89,4.89,0,0,0-2.43-.13c-5.7.4-11.2-1.93-17-1.26,1.18-.67,2-1.88,3.44-1.74,6.06.62,11.93-1.89,17.84-.91l1.74-1.74V596c2.9,1.91,6.19,2.61,8.61,5.2l9-4.58c.52,6.46.17,12.54.24,18.6s0,12.28,0,18.62h-5.94V606.55c-1.28-1.28-1.86-.17-2.56.45C899.13,607.82,898.88,605,897,606.66Z" class="cls-3" transform="translate(-798 -410)"/><path d="M912.83,596.09h6v12.27l2,2v5.19c-.35.62-.9.36-1.37.42a2.26,2.26,0,0,0-.35.34.81.81,0,0,0-.16.43c0,5.63,0,11.27,0,17.06h-5.85V612.65l-2-2v-4.41l1.68-.44Z" class="cls-5" transform="translate(-798 -410)"/><path d="M896.83,633.91h-5.66V620.28h5.66Z" class="cls-6" transform="translate(-798 -410)"/><path d="M958,457h1v3c-.87-.06-1,.49-1,1.18V470c-1.93-.47-.62-2-1-3v-8.76C957,457.56,957.07,456.93,958,457Z" class="cls-7" transform="translate(-798 -410)"/><path d="M964,448c-1.06.14-1.73,1.49-3,1-.16-.81.74-1,1-1.59-2.37-1.74-3.26,1.19-5,1.59h-1c.24-1.42,1.7-1.83,2.4-2.93h4.23C963,446.81,964.05,447,964,448Z" class="cls-8" transform="translate(-798 -410)"/><path d="M937,505c-.9.07-1-.53-1-1.21V499h2l-1,2h2v1c-.14,1.06-1.49,1.73-1,3Z" class="cls-9" transform="translate(-798 -410)"/><path d="M934,501v4h-1c-1,.16-1.45-1.87-3-.53V506c-1.85-.29-.73-1.67-.94-2.56.35-.89,2.11.14,1.94-1.44.76-.15,1.91.5,2-1Z" class="cls-10" transform="translate(-798 -410)"/><path d="M939.69,493,938,491.56c-.18-1.69,1.76-2.13,1.39-3.53,1.59-.12,1.57.63,1.64,1.49C941.13,490.9,939.65,491.55,939.69,493Z" class="cls-11" transform="translate(-798 -410)"/><path d="M938,505c-.49-1.27.86-1.94,1-3a.85.85,0,0,0,1-1h1.53c1.34,1.55-.69,2-.53,3C939.94,504.14,939.27,505.49,938,505Z" class="cls-12" transform="translate(-798 -410)"/><path d="M953,490v-2.82c2.73.58,2.73.58,2.79,3.53-.52.55-1.19.18-1.79.29A.85.85,0,0,0,953,490Z" class="cls-13" transform="translate(-798 -410)"/><path d="M933,501c-.09,1.5-1.24.85-2,1-.49-1.23-1.76-2.32-.59-3.94C932.91,497.51,931.74,500.4,933,501Z" class="cls-14" transform="translate(-798 -410)"/><path d="M953,476c.06.89-.51,1-1.2,1H948a.85.85,0,0,1-1-1c1.06-.14,1.73-1.49,3-1C950.47,476.93,952,475.62,953,476Z" class="cls-15" transform="translate(-798 -410)"/><path d="M947,476a.85.85,0,0,0,1,1c-.47,1.93-2,.62-3,1-.09-1.5-1.24-.85-2-1-.06-.87.49-1,1.18-1Z" class="cls-16" transform="translate(-798 -410)"/><path d="M939,501h-2l1-2,2-1a.85.85,0,0,0,1,1l-1,2Z" class="cls-17" transform="translate(-798 -410)"/><path d="M957,467c.38,1-.93,2.53,1,3v1a.85.85,0,0,1-1,1h-1v-3.8C956,467.51,956.11,466.94,957,467Z" class="cls-18" transform="translate(-798 -410)"/><path d="M985,472c-.12-.84.71-1,1-1.55s.81-.47,1.33-.44c.46.22.71.58.55,1.52L985,473Z" class="cls-19" transform="translate(-798 -410)"/><path d="M938,505c1.27.49,1.94-.86,3-1a.85.85,0,0,0,1,1,3.43,3.43,0,0,1-5,0Z" class="cls-20" transform="translate(-798 -410)"/><path d="M942.09,485.29c1.75-.69,3-.29,3.82,1.42C944.16,487.4,942.93,487,942.09,485.29Z" class="cls-2" transform="translate(-798 -410)"/><path d="M967,514a5.39,5.39,0,0,1-3,3v-2C965.06,514.86,965.73,513.51,967,514Z" class="cls-21" transform="translate(-798 -410)"/><path d="M956,449h1v4h-1Z" class="cls-5" transform="translate(-798 -410)"/><path d="M985,478l1.12.44L983,480v-2Z" class="cls-22" transform="translate(-798 -410)"/><path d="M932,508c-.76-.15-1.91.5-2-1v-1l2,1Z" class="cls-23" transform="translate(-798 -410)"/><path d="M953,476c-1-.38-2.53.93-3-1h3Z" class="cls-24" transform="translate(-798 -410)"/><path d="M937,499h-2c-.07-.94.57-1.06,1.24-1A.78.78,0,0,1,937,499Z" class="cls-25" transform="translate(-798 -410)"/><path d="M941,499a.85.85,0,0,1-1-1A.85.85,0,0,1,941,499Z" class="cls-2" transform="translate(-798 -410)"/><path d="M946,506h5.5l2.5,2.52c0,6.27-.13,12.59.07,18.91.07,2.07-.83,3.66-1.4,5.47h-2.31c-1.4-2.13,1.07-3.56.74-5.58s-1.57-3.41-1.31-5.4c-2.89.19-3.11,2.56-3.65,4.12a6,6,0,0,1-1.55,2.87,8.63,8.63,0,0,0-2.8,5.75c-3,1.28-6.53,1.05-9.28,3.22-2-1.29-2.12-3.54-2.77-5.59-.86-2.71-1.82-5.36-1.75-8.27.11-4.87-1.84-9.62-.79-14.74.9-.84,1.09,1.48,2.24.76s1.55,1,2.56,1v1c-1.32.41-2.23,1.1-1.94,2.6,1.63,1.15,2.72-.1,3.94-.6a.85.85,0,0,0,1,1,2.46,2.46,0,0,0,3-2h2a2.46,2.46,0,0,0,3-2h1c2.56.11,3.39-1.58,4-3.43-.76-.85-1.45-.46-2-.57Z" class="cls-26" transform="translate(-798 -410)"/><path d="M971,514c-.27-1.41-1.12-1.31-1.88-.56s-1.38.53-2.12.56v-4.45l2.67-3.66c2.1.35.9,2,1.58,2.88.71,1.65,3.22,1.18,4,3.64.66,2.13,3.57,2,6.94.48,1.67,2.3,3.88,1.1,5.31-.06,1.88-1.52,3.65-3,6.33-3.57,0,3.24.93,6.63-.56,10.11-.54,1.27-.26,2.92-.23,4.39.11,4.52-1.73,8.56-3,12.72-.18.56-.91.95-1.38,1.41-2.64-2.22-6.21-1.63-9.46-3.58.37-2.83-2.08-4.81-4-6.7-.32-2.6-1-4.61-3.21-5.83-2.44,3.57-2.16,7.15-.75,10.54-.88,1.07-1.79.51-2.67.72-2.85-4.52-.81-9.56-1.57-14.08.77-1.72,2.67-2.25,3.09-4A.85.85,0,0,0,971,514Z" class="cls-1" transform="translate(-798 -410)"/><path d="M967,550c-.13-2.94.07-5.78,2.06-8.24,1.55,1.08,1.07,2.43.87,3.38-.76,3.63-1.79,7.21-2.82,10.77-.38,1,1,1.13.84,2.42L962.47,562c-1-1-.45-2.2-.44-3.29a29.21,29.21,0,0,0-1.51-8.85,17,17,0,0,1,1.28-13.23c1.28-1.07,2.49-.42,3.73-.66l2.27,2.59c-2.77,3.35-1.55,7.52-1.8,11.45a.7.7,0,0,0-.89.64C966,551.16,966.76,551.39,967,550Z" class="cls-27" transform="translate(-798 -410)"/><path d="M955,550a43.7,43.7,0,0,1,0-5.49c.28-2.26-.84-4-1.82-6.25l2.81-1.14-.81-.94a6.12,6.12,0,0,1,3.95.26c-1.2,3.13-2.6,6.15-2.23,9.62a14.46,14.46,0,0,0,1,5.09c1.62,3.34.9,7,1.08,10.76-2.5-.64-3.93-2.68-6-3.42-.32-1,.48-1.48.88-1.91-.92-4.89-3.09-9.35-2.9-14.27,1-.41,1.65-.58,2,.61a17.6,17.6,0,0,1,1,7.08c.24,1.39,1,1.16,1.88.64A.69.69,0,0,0,955,550Z" class="cls-28" transform="translate(-798 -410)"/><path d="M993.84,505.85l-3.4,2h-4.58c.88-3.1,2.47-6.14.11-8.63.12-1.36.79-1.31,1.58-1.23.54-1.23.8-3.23,1.69-3.58,2.22-.86,2.18-3.73,4.6-4.32Z" class="cls-29" transform="translate(-798 -410)"/><path d="M984,465.72c.55,2.29-1.57,3-2.43,4.26h-6.09l-3.33-3.33v-6.3l2.26-2.26C977.9,460,981.25,462.15,984,465.72Z" class="cls-30" transform="translate(-798 -410)"/><path d="M950,537c.52,2-1.21,3.56-1,5.55.18,2.3-.66,5,.24,6.86s.23,4.14,1.77,5.75c.24.25,0,.94,0,2-1.55-.87-2.27-2.59-3.89-2.57-.64-1.54,2-2.57.83-4-1-1.17-.47-2.59-1-3.56-1.23-2.16-.79-4.38-.91-6.47,1.29-1.67,1.71-4,4-4.63Z" class="cls-31" transform="translate(-798 -410)"/><path d="M973,555l-2,1v-5a.85.85,0,0,0,1-1v-3a3.43,3.43,0,0,0,0-5c.51-1.84-1.17-3.23-1-5v-1c2.28.65,2.71,3,4,4.64a34.84,34.84,0,0,0,0,3.81c.15,1.37-1.51,2.14-1,3.55-1.5.09-.85,1.24-1,2v5Z" class="cls-32" transform="translate(-798 -410)"/><path d="M933.3,541.5c3.35-4,7.74-3.15,11.85-5-2.31,3.06-2.26,3.24-5.3,4.08C938,541.07,936.29,542.6,933.3,541.5Z" class="cls-33" transform="translate(-798 -410)"/><path d="M987,541.67c-2.35,1.16-4.07-.91-6.09-1.27s-4-.84-4.93-3.61c3.23.78,6.19,1.46,9.13,2.24.56.15,1,.76,1.51,1.11S986.93,541,987,541.67Z" class="cls-34" transform="translate(-798 -410)"/><path d="M957.41,568.08c1.46-.46,2.11,1.3,3.5,1.16v6.51C958.24,573.45,957.14,571,957.41,568.08Z" class="cls-30" transform="translate(-798 -410)"/><path d="M980.15,547.57a9.21,9.21,0,0,1-2.14-5.42l5.57,2Z" class="cls-9" transform="translate(-798 -410)"/><path d="M940.79,548.25l-3.41-4c1.18-1.4,3.61-.9,5.35-2.24C943.68,544.66,941.63,546.1,940.79,548.25Z" class="cls-9" transform="translate(-798 -410)"/><path d="M938,513a2.46,2.46,0,0,1-3,2,5.34,5.34,0,0,1,1-4,.85.85,0,0,1,1-1c-.16,1.6,1.67.53,1.93,1.34C938.77,512.07,937.83,512.17,938,513Z" class="cls-35" transform="translate(-798 -410)"/><path d="M943,511a2.46,2.46,0,0,1-3,2v-3a.85.85,0,0,0,1-1,.85.85,0,0,1,1-1C942.14,509.06,943.49,509.73,943,511Z" class="cls-36" transform="translate(-798 -410)"/><path d="M976,507l4.91,2.41a2.74,2.74,0,0,1-3.53,1.47L976,508Z" class="cls-37" transform="translate(-798 -410)"/><path d="M942,548.56c.65-1.09,2.28,0,2.88-1.37v5.38C943.66,550.82,942,550.37,942,548.56Z" class="cls-38" transform="translate(-798 -410)"/><path d="M976.15,552.74v-5.66l2.87,1.4C979.09,550.41,977.25,550.74,976.15,552.74Z" class="cls-38" transform="translate(-798 -410)"/><path d="M936,511a5.34,5.34,0,0,0-1,4,.85.85,0,0,1-1-1v-2h-2v-1Z" class="cls-39" transform="translate(-798 -410)"/><path d="M943,511c.49-1.27-.86-1.94-1-3l2-1a.85.85,0,0,0,1,1c-.14,1.06-1.49,1.73-1,3Z" class="cls-40" transform="translate(-798 -410)"/><path d="M932,508v-1a.85.85,0,0,0,1-1h1c1.15,0,1.2,1.14,1.79,2Z" class="cls-41" transform="translate(-798 -410)"/><path d="M940,510v3h-2c-.17-.83.77-.93.93-1.66-.26-.81-2.09.26-1.93-1.34Z" class="cls-9" transform="translate(-798 -410)"/><path d="M972,542a3.43,3.43,0,0,1,0,5Z" class="cls-42" transform="translate(-798 -410)"/><path d="M980,496.08h2.62c-.2,1.14-.6,2-1.84,1.92C979.86,497.81,980,497.13,980,496.08Z" class="cls-43" transform="translate(-798 -410)"/><path d="M975,508c-1-.12-1.41-.9-1.92-1.61.9-.56,1.67-.79,1.92.61Z" class="cls-44" transform="translate(-798 -410)"/><path d="M988,476l-1.42-.53,2.51-1.11c.28.13-.21,1-.09,1.64Z" class="cls-1" transform="translate(-798 -410)"/><path d="M971,554v2c.06.48-.1.82-.76.88C970.2,555.83,969.13,554.59,971,554Z" class="cls-42" transform="translate(-798 -410)"/><path d="M973,555v-3C974.37,553,974.37,554,973,555Z" class="cls-42" transform="translate(-798 -410)"/><path d="M955,550a.69.69,0,0,1,.88.64c-.87.52-1.64.75-1.88-.64Z" class="cls-45" transform="translate(-798 -410)"/><path d="M946,506v1a.85.85,0,0,1-1,1v-1A.85.85,0,0,1,946,506Z" class="cls-46" transform="translate(-798 -410)"/><path d="M973,550c.15-.76-.5-1.91,1-2C973.85,548.76,974.5,549.91,973,550Z" class="cls-42" transform="translate(-798 -410)"/><path d="M967,550c-.24,1.39-1,1.16-1.89.64A.7.7,0,0,1,966,550Z" class="cls-47" transform="translate(-798 -410)"/><path d="M941,509a.85.85,0,0,1-1,1A.85.85,0,0,1,941,509Z" class="cls-28" transform="translate(-798 -410)"/><path d="M990,479c.49,0,.93.06.79.66,0,.17-.51.23-.79.34Z" class="cls-39" transform="translate(-798 -410)"/><path d="M972,550a.85.85,0,0,1-1,1A.85.85,0,0,1,972,550Z" class="cls-42" transform="translate(-798 -410)"/><path d="M971,536v1c-.49,0-.93-.06-.79-.66C970.24,536.17,970.72,536.11,971,536Z" class="cls-30" transform="translate(-798 -410)"/><path d="M945,507v1a.85.85,0,0,1-1-1Z" class="cls-1" transform="translate(-798 -410)"/><path d="M950,537v-1c.49,0,.93.06.79.66C950.76,536.83,950.28,536.89,950,537Z" class="cls-39" transform="translate(-798 -410)"/><path d="M973,533a.71.71,0,0,1,.89.6c0,.07-.22.31-.29.29A.71.71,0,0,1,973,533Z" class="cls-48" transform="translate(-798 -410)"/><path d="M990,479v1c-.49,0-.93-.06-.79-.66C989.24,479.17,989.72,479.11,990,479Z" class="cls-49" transform="translate(-798 -410)"/><path d="M988,476h1c0,.49-.06.93-.66.79C988.17,476.76,988.11,476.28,988,476Z" class="cls-50" transform="translate(-798 -410)"/><path d="M948,533a.71.71,0,0,1-.6.89c-.07,0-.31-.22-.29-.29A.71.71,0,0,1,948,533Z" class="cls-51" transform="translate(-798 -410)"/><path d="M973,533a.71.71,0,0,1-.89-.6c0-.07.22-.31.29-.29A.71.71,0,0,1,973,533Z" class="cls-52" transform="translate(-798 -410)"/><path d="M948,533a.71.71,0,0,1,.6-.89c.07,0,.31.22.29.29A.71.71,0,0,1,948,533Z" class="cls-53" transform="translate(-798 -410)"/><path d="M971,514a.85.85,0,0,1-1,1A.85.85,0,0,1,971,514Z" class="cls-2" transform="translate(-798 -410)"/><circle cx="135.5" cy="95.5" r=".71" class="cls-54"/><circle cx="177.5" cy="97.5" r=".71" class="cls-55"/><path d="M931.15,602.1h4.7v25.67c-1.37.51-3,.17-4.7.17Z" class="cls-1" transform="translate(-798 -410)"/><path d="M980.79,602.16V612c-2.67-.14-4.13-1.83-5.7-3.43v-6.42Z" class="cls-56" transform="translate(-798 -410)"/><path d="M997.17,602.1h4.64v9.78l-4.64-2.26Z" class="cls-57" transform="translate(-798 -410)"/><path d="M958,464v-2.82c0-.69.13-1.24,1-1.18h1v3.8c0,.69-.11,1.26-1,1.2A.85.85,0,0,0,958,464Z" class="cls-58" transform="translate(-798 -410)"/><path d="M957,450v-1c1.69-.4,2.58-3.33,5-1.59-.21.62-1.11.78-1,1.59-1.27-.49-1.94.86-3,1Z" class="cls-59" transform="translate(-798 -410)"/><path d="M958,464a.85.85,0,0,1,1,1v6h-1v-7Z" class="cls-60" transform="translate(-798 -410)"/><path d="M958,471h1v3.91h-1.63c-.66-1-.25-2-.37-2.91A.85.85,0,0,0,958,471Z" class="cls-61" transform="translate(-798 -410)"/><path d="M962.33,480.17l-2,2-1.21-1.79C960.05,479.49,961,480.21,962.33,480.17Z" class="cls-62" transform="translate(-798 -410)"/><path d="M957,450h1c-.38,1,.93,2.53-1,3Z" class="cls-32" transform="translate(-798 -410)"/><path d="M960,460h-1v-3C960.93,457.47,959.62,459,960,460Z" class="cls-63" transform="translate(-798 -410)"/><path d="M943,477c.76.15,1.91-.5,2,1C944.24,477.85,943.09,478.5,943,477Z" class="cls-1" transform="translate(-798 -410)"/><path d="M953,490a.85.85,0,0,1,1,1A.85.85,0,0,1,953,490Z" class="cls-21" transform="translate(-798 -410)"/><path d="M942,478.5c-.32.47-.66.47-1,0C941.33,478,941.67,478,942,478.5Z" class="cls-1" transform="translate(-798 -410)"/><path d="M939,501h1a.85.85,0,0,1-1,1Z" class="cls-64" transform="translate(-798 -410)"/><path d="M933,505v1a.85.85,0,0,1-1,1l-2-1v-1.53C931.55,503.13,932,505.16,933,505Z" class="cls-65" transform="translate(-798 -410)"/><path d="M932,512h2v2c-1.22.5-2.31,1.75-3.94.6C929.77,513.1,930.68,512.41,932,512Z" class="cls-66" transform="translate(-798 -410)"/><path d="M945,508a.85.85,0,0,0,1-1c.6.11,1.29-.28,2,.57-.66,1.85-1.49,3.54-4,3.43C943.51,509.73,944.86,509.06,945,508Z" class="cls-67" transform="translate(-798 -410)"/></svg>